<?xml version="1.0" encoding="UTF-8"?>
<svg width="209px" height="58px" viewBox="0 0 209 58" version="1.1" xmlns="http://www.w3.org/2000/svg" xmlns:xlink="http://www.w3.org/1999/xlink">
    <!-- Generator: Sketch 53.2 (72643) - https://sketchapp.com -->
    <title>Layer1001</title>
    <desc>Created with Sketch.</desc>
    <g id="Corporate-Registry" stroke="none" stroke-width="1" fill="none" fill-rule="evenodd">
        <g id="Corporate-Registry---Home---banner3-Copy" transform="translate(-58.000000, -18.000000)">
            <g id="Layer1001" transform="translate(58.000000, 18.000000)">
                <g id="Layer1002" transform="translate(0.000000, 47.454545)">
                    <path d="M0.53134026,8.55575325 L1.39056883,8.55575325 L1.39056883,0.536612987 L0.53134026,0.536612987 L0.53134026,8.55575325 Z M3.26924156,8.55575325 L4.0941974,8.55575325 L4.0941974,4.9242 C4.0941974,3.90452987 4.73573766,3.21726753 5.60641558,3.21726753 C6.47701818,3.21726753 6.98116623,3.81308571 6.98116623,4.87847792 L6.98116623,8.55575325 L7.8058961,8.55575325 L7.8058961,4.64941558 C7.8058961,3.30893766 7.07283636,2.47268312 5.85845195,2.47268312 C4.96487532,2.47268312 4.42637922,2.96515584 4.0941974,3.56104935 L4.0941974,2.58732727 L3.26924156,2.58732727 L3.26924156,8.55575325 Z M11.0366468,8.65887273 C12.1133377,8.65887273 12.9726416,8.00588312 12.9726416,6.94056623 L12.9726416,6.91751688 C12.9726416,6.01256623 12.2851532,5.60008831 11.3000571,5.16486234 C10.4864753,4.82115584 9.97095325,4.56904416 9.97095325,4.0648961 L9.97095325,4.04214805 C9.97095325,3.57234805 10.3720571,3.20589351 11.0019974,3.20589351 C11.5291195,3.20589351 12.0446416,3.43495584 12.5028416,3.76713766 L12.9039455,3.1371974 C12.3997974,2.75906753 11.7009351,2.49565714 11.0249714,2.49565714 C9.95957922,2.49565714 9.16927273,3.14857143 9.16927273,4.12221818 L9.16927273,4.14526753 C9.16927273,5.07319221 9.92523117,5.45132208 10.8762052,5.8634987 C11.6778857,6.19590649 12.1706597,6.47076623 12.1706597,6.99788831 L12.1706597,7.00926234 C12.1706597,7.57050649 11.7125351,7.93718701 11.0593195,7.93718701 C10.4637273,7.93718701 9.87950909,7.68515065 9.31803896,7.21535065 L8.88288831,7.82254286 C9.51282857,8.37241299 10.303361,8.65887273 11.0366468,8.65887273 L11.0366468,8.65887273 Z M14.3241922,10.2740597 L15.1491481,10.2740597 L15.1491481,7.44441299 C15.5385766,8.09762857 16.1343948,8.67047273 17.0851429,8.67047273 C18.2995273,8.67047273 19.4679636,7.60485455 19.4679636,5.62306234 L19.4679636,5.50841818 C19.4679636,3.52662597 18.2995273,2.47268312 17.0851429,2.47268312 C16.1457688,2.47268312 15.5499506,3.0569013 15.1491481,3.73278961 L15.1491481,2.58732727 L14.3241922,2.58732727 L14.3241922,10.2740597 Z M16.9247766,7.92558701 C15.9854026,7.92558701 15.1148,7.03223636 15.1148,5.63443636 L15.1148,5.52001818 C15.1148,4.12221818 15.9854026,3.21726753 16.9247766,3.21726753 C17.8414026,3.21726753 18.6203351,4.0764961 18.6203351,5.53139221 L18.6203351,5.62306234 C18.6203351,7.08933247 17.8640753,7.92558701 16.9247766,7.92558701 Z M20.8882104,1.36126753 L21.8048364,1.36126753 L21.8048364,0.387620779 L20.8882104,0.387620779 L20.8882104,1.36126753 Z M20.9339325,8.55575325 L21.7588883,8.55575325 L21.7588883,2.58732727 L20.9339325,2.58732727 L20.9339325,8.55575325 Z M23.5231429,8.55575325 L24.3480987,8.55575325 L24.3480987,5.71473247 C24.3480987,4.17961558 25.2416753,3.40060779 26.3527896,3.40060779 L26.398813,3.40060779 L26.398813,2.50703117 C25.4248649,2.46130909 24.7031792,3.0682 24.3480987,3.90452987 L24.3480987,2.58732727 L23.5231429,2.58732727 L23.5231429,8.55575325 Z M29.6294883,8.68184675 C30.5229143,8.68184675 31.1417065,8.33806494 31.6799766,7.78819481 L31.2104026,7.2612987 C30.7979247,7.67377662 30.316826,7.94856104 29.6639117,7.94856104 C28.7243117,7.94856104 27.9109558,7.21535065 27.8192857,5.89792208 L31.8289688,5.89792208 C31.8403429,5.7948026 31.8403429,5.63443636 31.8403429,5.55436623 C31.8403429,3.75576364 30.9469922,2.47268312 29.4461481,2.47268312 C28.0483481,2.47268312 26.9830312,3.74416364 26.9830312,5.56574026 L26.9830312,5.62306234 C26.9830312,7.51341039 28.1744416,8.68184675 29.6294883,8.68184675 L29.6294883,8.68184675 Z M27.8192857,5.25630649 C27.8995818,4.0078 28.5641714,3.19429351 29.4461481,3.19429351 C30.4198701,3.19429351 30.9583662,4.12221818 31.0156883,5.25630649 L27.8192857,5.25630649 Z M35.2542078,8.67047273 C36.1935818,8.67047273 36.7894,8.08595325 37.1902779,7.41006494 L37.1902779,8.55575325 L38.0151584,8.55575325 L38.0151584,0.284576623 L37.1902779,0.284576623 L37.1902779,3.69844156 C36.800774,3.04552727 36.2051818,2.47268312 35.2542078,2.47268312 C34.0398234,2.47268312 32.871387,3.538 32.871387,5.52001818 L32.871387,5.63443636 C32.871387,7.62782857 34.0398234,8.67047273 35.2542078,8.67047273 Z M35.4259481,7.92558701 C34.4982494,7.92558701 33.7190156,7.06658442 33.7190156,5.61168831 L33.7190156,5.52001818 C33.7190156,4.05352208 34.4752753,3.21726753 35.4259481,3.21726753 C36.3655481,3.21726753 37.224626,4.11084416 37.224626,5.52001818 L37.224626,5.62306234 C37.224626,7.03223636 36.3655481,7.92558701 35.4259481,7.92558701 Z M58.6360416,8.55575325 L59.4953455,8.55575325 L59.4953455,5.72610649 L60.9501662,5.72610649 C62.5884026,5.71473247 63.8715584,4.79818182 63.8715584,3.10284935 L63.8715584,3.07987532 C63.8715584,1.49896104 62.7601429,0.536612987 61.0532104,0.536612987 L58.6360416,0.536612987 L58.6360416,8.55575325 Z M59.4953455,4.94717403 L59.4953455,1.32691948 L61.0074883,1.32691948 C62.2216468,1.32691948 63.0008805,1.94578701 63.0008805,3.11422338 L63.0008805,3.1255974 C63.0008805,4.22533766 62.2216468,4.94717403 60.9731403,4.94717403 L59.4953455,4.94717403 Z M66.5635117,8.68184675 C67.4455636,8.68184675 68.0297818,8.24639481 68.3848623,7.68515065 L68.3848623,8.55575325 L69.1984442,8.55575325 L69.1984442,4.71811169 C69.1984442,4.01917403 68.9920545,3.4693039 68.6256,3.10284935 C68.2360961,2.71311948 67.674626,2.50703117 66.9530156,2.50703117 C66.2197299,2.50703117 65.6355117,2.71311948 65.0740416,2.98812987 L65.3377532,3.66409351 C65.7500052,3.44632987 66.2654519,3.26321558 66.8613455,3.26321558 C67.8236182,3.26321558 68.3848623,3.77873766 68.3848623,4.74078442 L68.3848623,5.09594026 C67.9380364,4.95854805 67.4799117,4.8555039 66.8499714,4.8555039 C65.5324675,4.8555039 64.6502649,5.55436623 64.6502649,6.78012468 L64.6502649,6.82584675 C64.6502649,8.00588312 65.5668156,8.68184675 66.5635117,8.68184675 L66.5635117,8.68184675 Z M66.746626,7.99458442 C66.0363896,7.99458442 65.4751455,7.52478442 65.4751455,6.78012468 L65.4751455,6.74577662 C65.4751455,5.98959221 66.0020416,5.49704416 66.9530156,5.49704416 C67.5372338,5.49704416 68.0184078,5.60008831 68.3964623,5.73748052 L68.3964623,6.48236623 C68.3964623,7.35296883 67.6632519,8.00588312 66.746626,7.99458442 L66.746626,7.99458442 Z M72.4175948,8.65887273 C73.4942857,8.65887273 74.3535896,8.00588312 74.3535896,6.94056623 L74.3535896,6.91751688 C74.3535896,6.01256623 73.6661013,5.60008831 72.6810052,5.16486234 C71.8674234,4.82115584 71.3519013,4.56904416 71.3519013,4.0648961 L71.3519013,4.04214805 C71.3519013,3.57234805 71.7530052,3.20589351 72.3829455,3.20589351 C72.9100675,3.20589351 73.4255896,3.43495584 73.8837896,3.76713766 L74.2848935,3.1371974 C73.7807455,2.75906753 73.0818831,2.49565714 72.4059195,2.49565714 C71.3406026,2.49565714 70.5502208,3.14857143 70.5502208,4.12221818 L70.5502208,4.14526753 C70.5502208,5.07319221 71.3062545,5.45132208 72.2571532,5.8634987 C73.0589091,6.19590649 73.5516831,6.47076623 73.5516831,6.99788831 L73.5516831,7.00926234 C73.5516831,7.57050649 73.0934831,7.93718701 72.4402675,7.93718701 C71.8447506,7.93718701 71.2605325,7.68515065 70.698987,7.21535065 L70.2638364,7.82254286 C70.8937766,8.37241299 71.6843091,8.65887273 72.4175948,8.65887273 L72.4175948,8.65887273 Z M77.2405584,8.65887273 C78.3173247,8.65887273 79.1766286,8.00588312 79.1766286,6.94056623 L79.1766286,6.91751688 C79.1766286,6.01256623 78.4890649,5.60008831 77.5040442,5.16486234 C76.6904623,4.82115584 76.1749403,4.56904416 76.1749403,4.0648961 L76.1749403,4.04214805 C76.1749403,3.57234805 76.5760442,3.20589351 77.2059844,3.20589351 C77.7331065,3.20589351 78.2486286,3.43495584 78.7068286,3.76713766 L79.1079325,3.1371974 C78.6037844,2.75906753 77.9048468,2.49565714 77.2289584,2.49565714 C76.1635662,2.49565714 75.3732597,3.14857143 75.3732597,4.12221818 L75.3732597,4.14526753 C75.3732597,5.07319221 76.1292182,5.45132208 77.0801922,5.8634987 C77.8818727,6.19590649 78.3746468,6.47076623 78.3746468,6.99788831 L78.3746468,7.00926234 C78.3746468,7.57050649 77.9164468,7.93718701 77.2633065,7.93718701 C76.6677143,7.93718701 76.0834961,7.68515065 75.522026,7.21535065 L75.0868,7.82254286 C75.7167403,8.37241299 76.5073481,8.65887273 77.2405584,8.65887273 L77.2405584,8.65887273 Z M80.5511532,1.36126753 L81.4677792,1.36126753 L81.4677792,0.387620779 L80.5511532,0.387620779 L80.5511532,1.36126753 Z M80.5968753,8.55575325 L81.4217558,8.55575325 L81.4217558,2.58732727 L80.5968753,2.58732727 L80.5968753,8.55575325 Z M85.5118104,8.68184675 C87.0464753,8.68184675 88.1691896,7.34136883 88.1691896,5.60008831 L88.1691896,5.53139221 C88.1691896,3.79011169 87.0581506,2.47268312 85.5231844,2.47268312 C83.9879922,2.47268312 82.8652779,3.80148571 82.8652779,5.54276623 L82.8652779,5.62306234 C82.8652779,7.36434286 83.9766182,8.68184675 85.5118104,8.68184675 Z M85.5231844,7.93718701 C84.5035143,7.93718701 83.7132078,6.94056623 83.7132078,5.60008831 L83.7132078,5.54276623 C83.7132078,4.21396364 84.4577922,3.21726753 85.5118104,3.21726753 C86.5312545,3.21726753 87.3329351,4.21396364 87.3329351,5.55436623 L87.3329351,5.61168831 C87.3329351,6.92889091 86.5772026,7.93718701 85.5231844,7.93718701 L85.5231844,7.93718701 Z M89.5440156,8.55575325 L90.3688961,8.55575325 L90.3688961,4.9242 C90.3688961,3.90452987 91.0105117,3.21726753 91.8811143,3.21726753 C92.7517922,3.21726753 93.2559403,3.81308571 93.2559403,4.87847792 L93.2559403,8.55575325 L94.0805948,8.55575325 L94.0805948,4.64941558 C94.0805948,3.30893766 93.3476104,2.47268312 92.133226,2.47268312 C91.239574,2.47268312 90.7010779,2.96515584 90.3688961,3.56104935 L90.3688961,2.58732727 L89.5440156,2.58732727 L89.5440156,8.55575325 Z M95.604187,8.55575325 L96.6354571,8.55575325 L96.6354571,7.37571688 L95.604187,7.37571688 L95.604187,8.55575325 Z M101.320803,8.55575325 L103.588979,8.55575325 C105.823034,8.55575325 107.358226,6.92889091 107.358226,4.58041818 L107.358226,4.50034805 C107.358226,2.1405013 105.823034,0.536612987 103.588979,0.536612987 L101.320803,0.536612987 L101.320803,8.55575325 Z M103.566231,1.32691948 C105.318886,1.32691948 106.464574,2.61007532 106.464574,4.51172208 L106.464574,4.59201818 C106.464574,6.49374026 105.318886,7.76522078 103.566231,7.76522078 L102.180106,7.76522078 L102.180106,1.32691948 L103.566231,1.32691948 Z M108.858769,8.55575325 L109.683725,8.55575325 L109.683725,5.71473247 C109.683725,4.17961558 110.577377,3.40060779 111.688416,3.40060779 L111.734439,3.40060779 L111.734439,2.50703117 C110.760491,2.46130909 110.038805,3.0682 109.683725,3.90452987 L109.683725,2.58732727 L108.858769,2.58732727 L108.858769,8.55575325 Z M112.902875,1.36126753 L113.819426,1.36126753 L113.819426,0.387620779 L112.902875,0.387620779 L112.902875,1.36126753 Z M112.948597,8.55575325 L113.773478,8.55575325 L113.773478,2.58732727 L112.948597,2.58732727 L112.948597,8.55575325 Z M117.244665,8.60147532 L117.989551,8.60147532 L120.177657,2.58732727 L119.306753,2.58732727 L117.611421,7.49043636 L115.938836,2.58732727 L115.04526,2.58732727 L117.244665,8.60147532 Z M123.396808,8.68184675 C124.290158,8.68184675 124.908951,8.33806494 125.447221,7.78819481 L124.977647,7.2612987 C124.565244,7.67377662 124.08407,7.94856104 123.431156,7.94856104 C122.491556,7.94856104 121.6782,7.21535065 121.58653,5.89792208 L125.596213,5.89792208 C125.607587,5.7948026 125.607587,5.63443636 125.607587,5.55436623 C125.607587,3.75576364 124.714236,2.47268312 123.213392,2.47268312 C121.815668,2.47268312 120.750275,3.74416364 120.750275,5.56574026 L120.750275,5.62306234 C120.750275,7.51341039 121.941686,8.68184675 123.396808,8.68184675 L123.396808,8.68184675 Z M121.58653,5.25630649 C121.666826,4.0078 122.331416,3.19429351 123.213392,3.19429351 C124.187114,3.19429351 124.72561,4.12221818 124.782932,5.25630649 L121.58653,5.25630649 Z M126.936465,8.55575325 L127.761345,8.55575325 L127.761345,4.9242 C127.761345,3.90452987 128.402886,3.21726753 129.273564,3.21726753 C130.144166,3.21726753 130.648314,3.81308571 130.648314,4.87847792 L130.648314,8.55575325 L131.473044,8.55575325 L131.473044,4.64941558 C131.473044,3.30893766 130.74006,2.47268312 129.5256,2.47268312 C128.632023,2.47268312 128.093527,2.96515584 127.761345,3.56104935 L127.761345,2.58732727 L126.936465,2.58732727 L126.936465,8.55575325 Z M153.731862,8.55575325 L154.591166,8.55575325 L154.591166,1.33859481 L156.847969,1.33859481 L156.847969,0.536612987 L151.486961,0.536612987 L151.486961,1.33859481 L153.731862,1.33859481 L153.731862,8.55575325 Z M159.357109,8.68184675 C160.25046,8.68184675 160.869252,8.33806494 161.407522,7.78819481 L160.937948,7.2612987 C160.525545,7.67377662 160.044371,7.94856104 159.391457,7.94856104 C158.451857,7.94856104 157.638501,7.21535065 157.546831,5.89792208 L161.556514,5.89792208 C161.567888,5.7948026 161.567888,5.63443636 161.567888,5.55436623 C161.567888,3.75576364 160.674538,2.47268312 159.173694,2.47268312 C157.775969,2.47268312 156.710577,3.74416364 156.710577,5.56574026 L156.710577,5.62306234 C156.710577,7.51341039 157.901987,8.68184675 159.357109,8.68184675 L159.357109,8.68184675 Z M157.546831,5.25630649 C157.627127,4.0078 158.291717,3.19429351 159.173694,3.19429351 C160.147416,3.19429351 160.685912,4.12221818 160.743234,5.25630649 L157.546831,5.25630649 Z M165.210891,8.68184675 C166.093169,8.68184675 166.688686,8.29234286 167.135512,7.78819481 L166.654338,7.23832468 C166.276283,7.62782857 165.841057,7.92558701 165.256839,7.92558701 C164.248543,7.92558701 163.423888,7.02063636 163.423888,5.61168831 L163.423888,5.55436623 C163.423888,4.16824156 164.225795,3.22864156 165.222491,3.22864156 C165.841057,3.22864156 166.264909,3.54937403 166.61999,3.90452987 L167.112538,3.28596364 C166.654338,2.82776364 166.081494,2.47268312 165.233865,2.47268312 C163.744621,2.47268312 162.575958,3.74416364 162.575958,5.55436623 L162.575958,5.63443636 C162.575958,7.44441299 163.710273,8.68184675 165.210891,8.68184675 L165.210891,8.68184675 Z M168.36127,8.55575325 L169.186226,8.55575325 L169.186226,4.9242 C169.186226,3.90452987 169.827766,3.21726753 170.698444,3.21726753 C171.569047,3.21726753 172.073195,3.81308571 172.073195,4.87847792 L172.073195,8.55575325 L172.897925,8.55575325 L172.897925,4.64941558 C172.897925,3.30893766 172.164865,2.47268312 170.950481,2.47268312 C170.056904,2.47268312 169.518408,2.96515584 169.186226,3.56104935 L169.186226,0.284576623 L168.36127,0.284576623 L168.36127,8.55575325 Z M174.513112,8.55575325 L175.338068,8.55575325 L175.338068,4.9242 C175.338068,3.90452987 175.979608,3.21726753 176.850286,3.21726753 C177.720888,3.21726753 178.225036,3.81308571 178.225036,4.87847792 L178.225036,8.55575325 L179.049691,8.55575325 L179.049691,4.64941558 C179.049691,3.30893766 178.316706,2.47268312 177.102322,2.47268312 C176.20867,2.47268312 175.670174,2.96515584 175.338068,3.56104935 L175.338068,2.58732727 L174.513112,2.58732727 L174.513112,8.55575325 Z M182.990753,8.68184675 C184.525644,8.68184675 185.648358,7.34136883 185.648358,5.60008831 L185.648358,5.53139221 C185.648358,3.79011169 184.537244,2.47268312 183.002127,2.47268312 C181.466935,2.47268312 180.344221,3.80148571 180.344221,5.54276623 L180.344221,5.62306234 C180.344221,7.36434286 181.455561,8.68184675 182.990753,8.68184675 L182.990753,8.68184675 Z M183.002127,7.93718701 C181.982457,7.93718701 181.192075,6.94056623 181.192075,5.60008831 L181.192075,5.54276623 C181.192075,4.21396364 181.936735,3.21726753 182.990753,3.21726753 C184.010122,3.21726753 184.812104,4.21396364 184.812104,5.55436623 L184.812104,5.61168831 C184.812104,6.92889091 184.056145,7.93718701 183.002127,7.93718701 Z M187.091881,8.55575325 L187.916761,8.55575325 L187.916761,0.284576623 L187.091881,0.284576623 L187.091881,8.55575325 Z M192.006816,8.68184675 C193.541782,8.68184675 194.664496,7.34136883 194.664496,5.60008831 L194.664496,5.53139221 C194.664496,3.79011169 193.553382,2.47268312 192.01819,2.47268312 C190.482997,2.47268312 189.360283,3.80148571 189.360283,5.54276623 L189.360283,5.62306234 C189.360283,7.36434286 190.471623,8.68184675 192.006816,8.68184675 L192.006816,8.68184675 Z M192.01819,7.93718701 C190.998519,7.93718701 190.208213,6.94056623 190.208213,5.60008831 L190.208213,5.54276623 C190.208213,4.21396364 190.952797,3.21726753 192.006816,3.21726753 C193.02626,3.21726753 193.828166,4.21396364 193.828166,5.55436623 L193.828166,5.61168831 C193.828166,6.92889091 193.072208,7.93718701 192.01819,7.93718701 L192.01819,7.93718701 Z M198.250327,10.2970338 C199.098031,10.2970338 199.773919,10.0679714 200.232345,9.60977143 C200.656122,9.18599481 200.88526,8.57872727 200.88526,7.76522078 L200.88526,2.58732727 L200.060304,2.58732727 L200.060304,3.65271948 C199.659501,3.02247792 199.052309,2.47268312 198.101335,2.47268312 C196.887177,2.47268312 195.741488,3.49227792 195.741488,5.29095584 L195.741488,5.33667792 C195.741488,7.13528052 196.875577,8.14335065 198.089961,8.14335065 C199.040935,8.14335065 199.647826,7.58210649 200.060304,6.91751688 L200.060304,7.78819481 C200.060304,8.97960519 199.361668,9.57542338 198.238953,9.57542338 C197.551465,9.57542338 196.875577,9.35773506 196.314332,8.99120519 L195.982151,9.65549351 C196.680787,10.0909455 197.448421,10.2970338 198.250327,10.2970338 L198.250327,10.2970338 Z M198.284675,7.39869091 C197.356675,7.39869091 196.589117,6.60815844 196.589117,5.3137039 L196.589117,5.29095584 C196.589117,3.98482597 197.345377,3.21726753 198.284675,3.21726753 C199.201301,3.21726753 200.083278,4.0078 200.083278,5.29095584 L200.083278,5.3253039 C200.083278,6.59678442 199.201301,7.39869091 198.284675,7.39869091 Z M204.757325,7.50173506 L202.970021,2.58732727 L202.07667,2.58732727 L204.367821,8.55575325 C204.070062,9.32338701 203.783603,9.57542338 203.336777,9.57542338 C203.039018,9.57542338 202.786906,9.48375325 202.557844,9.35773506 L202.305732,10.0449974 C202.649288,10.2283377 203.00467,10.3200831 203.382499,10.3200831 C204.184481,10.3200831 204.700003,9.89623117 205.123779,8.65887273 L207.24319,2.58732727 L206.361213,2.58732727 L204.757325,7.50173506 Z M207.563997,8.55575325 L208.595268,8.55575325 L208.595268,7.37571688 L207.563997,7.37571688 L207.563997,8.55575325 Z" id="path4" fill="#283D7C"></path>
                    <path d="M42.7922494,8.55575325 L45.564574,8.55575325 C47.2484571,8.55575325 48.3598727,7.75384675 48.3598727,6.3906961 L48.3598727,6.35634805 C48.3598727,5.26798182 47.637961,4.70643636 46.6986623,4.43165195 C47.3631766,4.16824156 48.0160909,3.62974545 48.0160909,2.56435325 L48.0160909,2.54137922 C48.0160909,2.00288312 47.8213766,1.55605714 47.4891948,1.22387532 C47.0423688,0.777049351 46.3551065,0.536612987 45.5071766,0.536612987 L42.7922494,0.536612987 L42.7922494,8.55575325 Z M47.145413,2.67877143 C47.145413,3.6066961 46.4465506,4.13389351 45.3811584,4.13389351 L43.6514779,4.13389351 L43.6514779,1.31554545 L45.4614545,1.31554545 C46.5268468,1.31554545 47.145413,1.83106753 47.145413,2.65602338 L47.145413,2.67877143 Z M47.4891948,6.31032468 L47.4891948,6.3332987 C47.4891948,7.2496987 46.7559844,7.77682078 45.5989221,7.77682078 L43.6514779,7.77682078 L43.6514779,4.88985195 L45.4958026,4.88985195 C46.7903325,4.88985195 47.4891948,5.41674805 47.4891948,6.31032468 L47.4891948,6.31032468 Z M51.8540338,7.50173506 L50.0668052,2.58732727 L49.1733792,2.58732727 L51.4645299,8.55575325 C51.1667714,9.32338701 50.8803117,9.57542338 50.4334857,9.57542338 C50.1357273,9.57542338 49.8836909,9.48375325 49.6545532,9.35773506 L49.4025169,10.0449974 C49.7459974,10.2283377 50.1013792,10.3200831 50.4792078,10.3200831 C51.2811896,10.3200831 51.7967117,9.89623117 52.2204883,8.65887273 L54.3398987,2.58732727 L53.4579221,2.58732727 L51.8540338,7.50173506 Z M136.16999,8.55575325 L138.942314,8.55575325 C140.626273,8.55575325 141.737613,7.75384675 141.737613,6.3906961 L141.737613,6.35634805 C141.737613,5.26798182 141.015777,4.70643636 140.076403,4.43165195 C140.740917,4.16824156 141.393831,3.62974545 141.393831,2.56435325 L141.393831,2.54137922 C141.393831,2.00288312 141.199117,1.55605714 140.866935,1.22387532 C140.420184,0.777049351 139.732922,0.536612987 138.884992,0.536612987 L136.16999,0.536612987 L136.16999,8.55575325 Z M140.523229,2.67877143 C140.523229,3.6066961 139.824291,4.13389351 138.758974,4.13389351 L137.029294,4.13389351 L137.029294,1.31554545 L138.83927,1.31554545 C139.904662,1.31554545 140.523229,1.83106753 140.523229,2.65602338 L140.523229,2.67877143 Z M140.866935,6.31032468 L140.866935,6.3332987 C140.866935,7.2496987 140.133725,7.77682078 138.976662,7.77682078 L137.029294,7.77682078 L137.029294,4.88985195 L138.873618,4.88985195 C140.168073,4.88985195 140.866935,5.41674805 140.866935,6.31032468 L140.866935,6.31032468 Z M145.231774,7.50173506 L143.444545,2.58732727 L142.551195,2.58732727 L144.842345,8.55575325 C144.544512,9.32338701 144.258127,9.57542338 143.811301,9.57542338 C143.513468,9.57542338 143.261431,9.48375325 143.032369,9.35773506 L142.780257,10.0449974 C143.123738,10.2283377 143.479119,10.3200831 143.857023,10.3200831 C144.65893,10.3200831 145.174452,9.89623117 145.598304,8.65887273 L147.717714,2.58732727 L146.835662,2.58732727 L145.231774,7.50173506 Z" id="path6" fill="#C42A33"></path>
                </g>
                <g id="Layer1003">
                    <polygon id="path9" fill="#283D7C" points="0.261903896 11.5058442 0.261903896 33.5595532 9.56676104 33.5595532 9.56676104 8.46430909 9.56676104 4.70628571 0.261903896 0.18801039 0.261903896 8.46430909"></polygon>
                    <path d="M12.3850338,10.431639 L20.5272545,20.1399351 L26.700413,8.3745974 L13.4591636,8.3745974 L12.3850338,10.431639 Z M15.5170338,29.713626 L15.5170338,29.713626 L9.56676104,22.6003403 L9.56676104,33.5595532 L13.5035299,33.5595532 L15.5170338,29.713626 Z" id="path11" fill="#283D7C"></path>
                    <polygon id="path13" fill="#283D7C" points="20.5272545 18.2604338 14.9351506 28.997213 18.8719195 33.6502442 33.5003481 33.6502442"></polygon>
                    <polygon id="path15" fill="#E5435C" points="7.37481299 20.0053299 0.261903896 33.5595532 9.56676104 33.5595532 9.56676104 22.6003403"></polygon>
                    <polygon id="path17" fill="#BD2932" points="15.5170338 29.713626 21.1536545 18.9760182 12.9669169 9.26862597 9.56676104 15.7561143 7.37481299 20.0053299"></polygon>
                    <polygon id="path19" fill="#BD2932" points="54.8600909 10.2888987 54.8600909 7.77245195 39.2169636 7.77245195 39.2169636 10.2888987"></polygon>
                    <polygon id="path21" fill="#BD2932" points="151.609439 10.2971091 151.609439 7.78081299 135.799769 7.78081299 135.799769 10.2971091"></polygon>
                    <path d="M41.9756545,19.6932597 L53.490387,19.6932597 L53.490387,22.2472935 L41.9756545,22.2472935 L41.9756545,33.6510727 L39.199187,33.6510727 L39.199187,19.6943896 L41.9756545,19.6932597 Z M65.1916234,7.73418701 L65.1916234,7.73418701 L67.9686935,7.73418701 L67.9686935,33.6510727 L65.1916234,33.6510727 L65.1916234,7.73418701 Z M79.7806571,7.73418701 L79.7806571,7.73418701 L82.4090364,7.73418701 L95.9594935,28.1344442 L95.9594935,7.73418701 L98.6995792,7.73418701 L98.6995792,33.6510727 L96.3606727,33.6510727 L82.4461714,12.7694909 L82.4461714,33.6510727 L79.7806571,33.6510727 L79.7806571,7.73418701 Z M115.843174,10.3254312 L115.843174,10.3254312 L108.586094,10.3254312 L108.586094,7.73418701 L125.912953,7.73418701 L125.912953,10.3254312 L118.620319,10.3254312 L118.620319,33.6510727 L115.843174,33.6510727 L115.843174,10.3254312 Z M138.576914,19.3227377 L138.576914,19.3227377 L150.277096,19.3227377 L150.277096,21.840013 L138.576914,21.840013 L138.576914,31.0962104 L151.79421,31.0962104 L151.79421,33.6510727 L135.800597,33.6510727 L135.800597,19.3503065 L138.576914,19.3227377 Z M172.307153,34.0206909 L172.307153,34.0206909 C170.703039,34.0206909 169.221629,33.7059091 167.86473,33.0763455 C166.506701,32.4478364 165.329151,31.5529039 164.329065,30.3928286 C163.328979,29.2325273 162.545753,27.8444442 161.978408,26.2276753 C161.410234,24.6116597 161.126561,22.8154675 161.126561,20.8407558 L161.126561,20.6185481 C161.126561,18.6685429 161.415657,16.8788286 161.996712,15.2501584 C162.575958,13.621413 163.372065,12.2204494 164.383977,11.0474935 C165.396039,9.87529091 166.592722,8.96853247 167.975457,8.32616364 C169.358042,7.6846987 170.863255,7.36449351 172.492829,7.36449351 C174.269964,7.36449351 175.775101,7.65999221 177.009447,8.25294805 C178.243717,8.845 179.366431,9.60992208 180.378494,10.5477896 L178.675704,12.6586883 C177.861218,11.8681558 176.953481,11.220439 175.954525,10.7144078 C174.954364,10.2083013 173.787735,9.95581299 172.455242,9.95581299 C171.270535,9.95581299 170.159647,10.2147792 169.123857,10.7336156 C168.087164,11.2514727 167.192231,11.979787 166.43921,12.9177299 C165.685964,13.8556727 165.094062,14.9783117 164.662151,16.2868519 C164.230239,17.5953169 164.013229,19.0262597 164.013229,20.5818649 L164.013229,20.7291247 C164.013229,22.3341429 164.230239,23.7899429 164.662151,25.0984078 C165.094062,26.4067974 165.685964,27.5296623 166.43921,28.4675299 C167.192231,29.4053221 168.087164,30.133787 169.123857,30.6516442 C170.159647,31.1704052 171.270535,31.4294468 172.455242,31.4294468 C173.787735,31.4294468 174.954364,31.1704052 175.954525,30.6516442 C176.953481,30.133787 177.922683,29.4301039 178.860475,28.5417247 L180.526732,30.4668727 C179.41607,31.5529039 178.212608,32.4167273 176.917099,33.0588701 C175.621364,33.7004857 174.085117,34.0206909 172.307153,34.0206909 Z M190.265234,7.73418701 L190.265234,7.73418701 L193.042455,7.73418701 L193.042455,19.3227377 L205.556218,19.3227377 L205.556218,7.73418701 L208.333138,7.73418701 L208.333138,33.6510727 L205.556218,33.6510727 L205.556218,21.9142078 L193.042455,21.9142078 L193.042455,33.6510727 L190.265234,33.6510727 L190.265234,7.73418701 Z" id="path23" fill="#283D7C"></path>
                </g>
            </g>
        </g>
    </g>
</svg>